<svg id="Layer_1" data-name="Layer 1" xmlns="http://www.w3.org/2000/svg" width="170" height="170">
<style>
	#helm { fill: #888 }
	@media (prefers-color-scheme: dark) {
		#helm { fill: #FFF; }
	}
  
</style>
	<g id="helm">
		<path d="M1.231 118.956V53.588h15.257v26.03h5.435v-26.03H37.18v65.368H21.923V92.144h-5.435v26.812H1.231zM59.016 89.208a12.189 12.189 0 0 0 .095-1.762c0-4.599-.19-8.024-2.097-8.024-2.003 0-2.48 3.817-2.48 9.786Zm-.286 12.232 12.968 1.565c-.953 9.786-5.72 16.538-14.684 16.538-10.108 0-16.592-8.415-16.592-25.638 0-15.363 5.912-25.345 16.973-25.345 9.44 0 14.59 8.22 14.59 21.137a69.517 69.517 0 0 1-.382 8.024h-17.26c0 7.829.573 11.156 2.575 11.156 1.812 0 2.003-3.817 1.812-7.437M92.867 117.88a16.657 16.657 0 0 1-6.961 1.663c-6.961 0-10.966-3.131-10.966-12.036v-57.05h14.875v55.484c0 1.174.477 1.762 1.335 1.762a2.267 2.267 0 0 0 1.24-.392ZM137.97 68.56c6.675 0 10.203 4.697 10.203 11.743v38.653h-14.78v-34.25c0-2.25-.477-3.62-2.003-3.62-1.335 0-2.097 1.076-2.097 4.208v33.662h-14.876v-34.25c0-2.25-.477-3.62-2.003-3.62-1.239 0-2.097 1.076-2.097 4.208v33.662h-14.78V69.148h12.205l1.05 7.73c1.239-5.088 4.958-8.318 9.916-8.318 5.054 0 8.296 3.62 9.345 7.927 1.24-4.11 4.767-7.927 9.917-7.927M160.187 119.543a8.81 8.81 0 0 1 0-17.614 8.81 8.81 0 0 1 0 17.614"/>
	</g>
</svg>