<svg id="Layer_1" data-name="Layer 1" xmlns="http://www.w3.org/2000/svg" viewBox="0 0 14 2"><defs><style>.cls-1{fill:#243161;}</style></defs><path class="cls-1" d="M324.43,2h-1.38V0h1.38Zm-6.89,0h-1.37V0h1.37Zm-6.89,0h-1.37V0h1.37Zm-6.88,0h-1.38V0h1.38Zm-6.89,0H295.5V0h1.38ZM290,2h-1.38V0H290ZM283.1,2h-1.38V0h1.38Zm-6.89,0h-1.38V0h1.38Zm-6.89,0H268V0h1.37Zm-6.88,0h-1.38V0h1.38Zm-6.89,0h-1.38V0h1.38Zm-6.89,0h-1.38V0h1.38Zm-6.89,0h-1.38V0h1.38Zm-6.89,0H233.5V0h1.38ZM228,2h-1.37V0H228Zm-6.88,0h-1.38V0h1.38Zm-6.89,0h-1.38V0h1.38Zm-6.89,0H206V0h1.38Zm-6.89,0h-1.38V0h1.38Zm-6.89,0h-1.38V0h1.38Zm-6.88,0h-1.38V0h1.38Zm-6.89,0H178.4V0h1.38Zm-6.89,0h-1.38V0h1.38ZM166,2h-1.38V0H166Zm-6.89,0h-1.38V0h1.38Zm-6.89,0h-1.37V0h1.37Zm-6.89,0H144V0h1.37Zm-6.88,0h-1.38V0h1.38Zm-6.89,0h-1.38V0h1.38Zm-6.89,0h-1.38V0h1.38Zm-6.89,0H116.4V0h1.38Zm-6.89,0h-1.37V0h1.37ZM104,2h-1.37V0H104ZM97.12,2H95.74V0h1.38ZM90.23,2H88.85V0h1.38ZM83.34,2H82V0h1.38ZM76.45,2H75.07V0h1.38ZM69.56,2H68.19V0h1.37ZM62.67,2H61.3V0h1.37ZM55.79,2H54.41V0h1.38ZM48.9,2H47.52V0H48.9ZM42,2H40.63V0H42ZM35.12,2H33.74V0h1.38ZM28.23,2H26.86V0h1.37ZM21.34,2H20V0h1.37Zm-13,0H7V0H8.38Zm-7,0H0V0H1.38Z"/></svg>